<svg width="38" height="38" viewBox="0 0 38 38" fill="none" xmlns="http://www.w3.org/2000/svg">
<path fill-rule="evenodd" clip-rule="evenodd" d="M9.23768 28.7624C8.743 28.2677 8.743 27.4656 9.23768 26.9711L26.0754 10.1333H15.2C14.5005 10.1333 13.9333 9.5662 13.9333 8.86665C13.9333 8.1671 14.5005 7.59998 15.2 7.59998H29.1333C29.4693 7.59998 29.7915 7.73344 30.0291 7.97099C30.2665 8.20854 30.4 8.5307 30.4 8.86665V22.8C30.4 23.4996 29.8328 24.0667 29.1333 24.0667C28.4339 24.0667 27.8667 23.4996 27.8667 22.8V11.9247L11.029 28.7624C10.5343 29.2569 9.73234 29.2569 9.23768 28.7624Z" fill="#EDDBC2"/>
</svg>
